Coordinates
version=1
nRows=7
nColumns=46
inDegrees=yes

Units are S.I. units (second, meters, Newtons, ...)
Angles are in degrees.

endheader
time	pelvis_tilt	pelvis_list	pelvis_rotation	pelvis_tx	pelvis_ty	pelvis_tz	bb_angle	bb_tx	bb_ty	bb_tz	hip_flexion_r	hip_adduction_r	hip_rotation_r	knee_angle_r	knee_angle_r_beta	ankle_angle_r	subtalar_angle_r	mtp_angle_r	crank_angle_r	hip_flexion_l	hip_adduction_l	hip_rotation_l	knee_angle_l	knee_angle_l_beta	ankle_angle_l	subtalar_angle_l	mtp_angle_l	crank_angle_l	lumbar_extension	lumbar_bending	lumbar_rotation	arm_flex_r	arm_add_r	arm_rot_r	elbow_flex_r	pro_sup_r	wrist_flex_r	wrist_dev_r	arm_flex_l	arm_add_l	arm_rot_l	elbow_flex_l	pro_sup_l	wrist_flex_l	wrist_dev_l
      5.00000000	    -20.33961040	      3.58491431	     10.60867394	      0.37311251	      1.10558868	     -0.27288487	      0.00000000	      0.50000000	      0.00000000	      0.25000000	     42.63281966	     -9.14773580	      0.29193772	     67.51870048	      1.17842363	    -25.92702182	     -9.41352329	      0.00000000	      0.00000000	     67.75380296	     -2.42538345	     -1.76632081	     75.59153255	      1.31932113	      4.77629421	     -4.08724636	      0.00000000	      0.00000000	    -67.34593713	     -4.51580720	     -7.53000342	     65.01871019	    -17.30897350	     28.58031590	     58.93982232	     44.84846893	      0.00000000	      0.00000000	     65.94893546	    -11.58821421	     17.32639323	     76.63649375	     45.49061805	      0.00000000	      0.00000000
      5.00500000	    -20.19208586	      3.04688289	     10.33081661	      0.37285332	      1.10360621	     -0.27346227	      0.00000000	      0.50000000	      0.00000000	      0.25000000	     43.72556691	     -8.43661853	      0.47480850	     70.26078824	      1.22628209	    -25.00410672	     -9.71433279	      0.00000000	      0.00000000	     66.85175455	     -3.10849201	     -1.98069976	     73.67444640	      1.28586166	      3.63245103	     -3.72799211	      0.00000000	      0.00000000	    -67.12146566	     -4.01170020	     -7.97603024	     65.93818726	    -15.74871862	     29.55835666	     57.25704178	     44.74644320	      0.00000000	      0.00000000	     64.46262705	    -12.77845889	     15.64469879	     78.96840459	     45.69192416	      0.00000000	      0.00000000
      5.01000000	    -19.84967421	      2.46113320	     10.04713659	      0.37227486	      1.10203130	     -0.27361022	      0.00000000	      0.50000000	      0.00000000	      0.25000000	     44.56692051	     -7.60442353	      0.53358750	     72.88352602	      1.27205750	    -24.00829579	    -10.28205973	      0.00000000	      0.00000000	     65.76711864	     -3.82981483	     -2.01321294	     71.72155992	      1.25177737	      2.31411614	     -3.11885450	      0.00000000	      0.00000000	    -67.10959024	     -3.64105910	     -7.44214682	     66.15906117	    -15.54886306	     29.62086346	     57.26563770	     44.75709795	      0.00000000	      0.00000000	     64.15282235	    -12.99939994	     15.51723714	     79.00217533	     45.68712535	      0.00000000	      0.00000000
      5.01500000	    -19.90694669	      2.06071252	      9.37424583	      0.37183399	      1.09955646	     -0.27328073	      0.00000000	      0.50000000	      0.00000000	      0.25000000	     45.87199545	     -6.58028811	      1.20589251	     75.63597782	      1.32009685	    -22.38541614	    -10.44698317	      0.00000000	      0.00000000	     65.00425199	     -4.77164563	     -2.40841110	     69.86648308	      1.21940017	      0.98253841	     -2.75895737	      0.00000000	      0.00000000	    -66.66508285	     -3.65429763	     -7.43691264	     66.45208476	    -14.66151176	     30.15750356	     56.79859543	     44.76199618	      0.00000000	      0.00000000	     63.16344882	    -13.92588521	     14.64405842	     80.11076792	     45.78299480	      0.00000000	      0.00000000
      5.02000000	    -19.52383573	      1.45897956	      8.98762003	      0.37134218	      1.09765013	     -0.27338236	      0.00000000	      0.50000000	      0.00000000	      0.25000000	     46.71586274	     -5.71073054	      1.21598297	     78.27746004	      1.36619941	    -21.25268920	    -10.98815368	      0.00000000	      0.00000000	     63.85122621	     -5.49551287	     -2.31134513	     68.02125119	      1.18719479	     -0.36410926	     -2.24818456	      0.00000000	      0.00000000	    -66.65096014	     -3.29648083	     -6.78998920	     66.65050008	    -14.45863941	     30.24268551	     56.74931690	     44.76439985	      0.00000000	      0.00000000	     62.77928602	    -14.23849386	     14.46860662	     80.25393377	     45.79226737	      0.00000000	      0.00000000
      5.02500000	    -19.50209107	      1.17303674	      8.33290468	      0.37057703	      1.09476155	     -0.27365710	      0.00000000	      0.50000000	      0.00000000	      0.25000000	     48.13175194	     -5.02860361	      1.71197706	     81.21159955	      1.41740980	    -19.37285670	    -10.60204358	      0.00000000	      0.00000000	     62.96953074	     -6.14320956	     -2.61355728	     66.26632992	      1.15656564	     -1.85801613	     -2.29687042	      0.00000000	      0.00000000	    -66.27707360	     -3.01212523	     -7.70567332	     67.98047908	    -12.48947193	     32.19441876	     54.47660045	     44.65761499	      0.00000000	      0.00000000	     60.71220545	    -16.48233067	     12.60056653	     83.66618418	     46.14849466	      0.00000000	      0.00000000
      5.03000000	    -19.25586674	      0.77988162	      7.74347428	      0.36992915	      1.09222383	     -0.27413304	      0.00000000	      0.50000000	      0.00000000	      0.25000000	     49.29144551	     -4.33197260	      1.96236386	     83.99562534	      1.46600022	    -17.87233723	    -10.43790652	      0.00000000	      0.00000000	     61.86310179	     -6.74807274	     -2.67331657	     64.56734936	      1.12691284	     -3.35534888	     -2.24640793	      0.00000000	      0.00000000	    -66.05100004	     -2.78154615	     -7.26833399	     68.17609000	    -12.16964221	     32.53447036	     54.36046653	     44.69296409	      0.00000000	      0.00000000	     60.09812203	    -17.06988238	     12.39119787	     83.72452258	     46.13661928	      0.00000000	      0.00000000
